<?xml version="1.0" encoding="utf-8"?>
<!-- Generator: Adobe Illustrator 19.0.0, SVG Export Plug-In . SVG Version: 6.00 Build 0)  -->
<svg version="1.1" id="Pagina_inicial_Escritorio" xmlns="http://www.w3.org/2000/svg" xmlns:xlink="http://www.w3.org/1999/xlink"
	 x="0px" y="0px" viewBox="-132 239 346.6 316" style="enable-background:new -132 239 346.6 316;" xml:space="preserve">
<style type="text/css">
	.st0{fill:#D1ECFB;}
	.st1{fill:#57D357;}
	.st2{fill:#103754;}
	.st3{fill:none;}
	.st4{fill:#C1E2DE;}
	.st5{fill:#0E303F;}
	.st6{fill:#FFFFFF;}
	.st7{fill:#B7C9CB;}
	.st8{fill:#58C4F4;}
	.st9{fill:#FD6120;}
	.st10{fill:#F9F9F9;}
	.st11{fill:#DDC30A;}
	.st12{fill:#633E08;}
	.st13{font-family:'BernardMT-Condensed';}
	.st14{font-size:42.8823px;}
</style>
<path class="st0" d="M56.5,239c-87.1,0-158,70.9-158,158s70.9,158,158,158s158.1-70.8,158.1-157.9S143.6,239,56.5,239z"/>
<path class="st1" d="M206.2,437.2c-2,0-4.8,1-4.8,1.7s-2.8,1.9-3.9,2.4s-2.7,3.3-3.2,4.2s-2.7,0.7-3.5,1s-2.6,1.8-2.6,2.6
	s-0.5,0.7-1-0.2l-1.1,1.1l-1.4,1.5c-0.8,2.4-3.3,5.5-4.2,5.7s-1,4.4-1,6.1c0,1.7,0.5,3.3,1.5,4.7v1.4l0.2,2.7
	c-0.2,1.6,0.4,3.2,1.6,4.3c0.5,0.3,4.3-0.7,5.8-1l2-0.8c7-11.8,12.4-24.5,16.2-37.7L206.2,437.2z"/>
<path class="st1" d="M-54.8,441.2c-0.2,0.5,2.6,3.3,3.6,4.3c1.6,2.2,2.9,4.7,3.9,7.3c0.3,1.6,0.3,3.1,0,4.7c0.1,0.8,0.3,1.6,0.6,2.4
	c0.1,0.6-0.9,5.1-0.6,7s-2.2,7.6-2,10.6s1.4,6.6,1.8,6.4s0.7,2.6-0.1,3s-1.9,2.6-1.4,2.7s0,2.4,0.1,3.3s0.9,6.9,1,8.4
	s2.3,5.1,2.7,6.4s0.9,3.5,1,3.9l0.3,0.8c0.8,0.2,1.6,0.6,2.3,1c0.5,0.3,3.9,0.1,5-0.1s0.1-1.2-0.3-1.7s-0.9-3.2-1.5-3.4
	s-0.8-3.6-0.3-4.4s2.5-1.9,2.7-2.6s0.2-3.5-0.2-4s0.1-4-0.2-5.8s3.1-3.4,3.3-4.8s4-3,4.8-3.6s1.6-4.8,1.1-5.6s1.4-1.6,2.2-1.6l2-0.6
	c0.2,0,1.2-1.8,1.7-2.2s1.6-4.7,2.5-5.3c0.9-1.1,1.5-2.5,1.7-4c0.4-1.3,1-2.5,1.9-3.6c0.5-0.7,4-2.3,4.7-2.5s1.6-5.9,1.8-8
	c0.4-1.9,0.8-3.7,1.4-5.5c0-0.7,1.1-1.2,1.4-1.5s1-2.8,1.6-3.4s2.5-3.1,2.5-3.6c0.1-1.1,0.4-2.2,0.7-3.2v-3.5
	c-0.6-1.7-2.5-3.9-3-3.3s-2.6-1.5-3.7-1.9c-1.5-0.4-3-0.7-4.5-0.7c-0.7,0-3.1-1.9-4.2-2.3c-1.5-0.3-2.9-0.6-4.3-1.1
	c-0.5-0.3-1.1-4.4-3.4-5.8s-6.1-4.5-6.6-5.7s-4.7-3.5-6-4.3s-3.3-0.9-3.5-0.6s-1.9-2.3-2.7-3s-3.4-1.2-3.5-0.7s-1.8,0.2-2.2-0.2
	s-1.7,0.2-2.4,0.5s-2.7,3.4-3.7,4.2s-2.2-0.7-2.8-1c-1.3,0-2.6,0.3-3.7,1c-0.7,0.5-2.2-3.4-1.8-5.2s-1.6-5.3-3.2-5.5
	s-1.9-3.9-1.7-5.2s-2.7-2.3-3.5-2.4s-2.6,1.8-3,2.8s-7.3-1.2-6.5-5.5s4.1-8.5,4.9-9s5.2-0.7,6.2-0.1c0.6,0.3,1.4,0.3,2-0.2
	c1.7-0.1,3.3,0,4.9,0.5c1,0.5,2.6,4.7,3.7,5.1s1.5-2.7,1.7-3.5c-0.1-1.1-0.4-2.3-0.8-3.3c-0.2-0.6,1.8-5.7,3.5-6.5s3.5-3.7,3.3-4.2
	s1.4-0.9,1.7-1.1s0-4.3,0.6-5.2c1.5-1.3,3.1-2.4,4.9-3.2c1-0.5,1.7-3,1.4-3.5s2.6-3,4.2-3.5s2.8,0.9,2.5,1l3.3-1.8
	c0.9-0.6,0-2.6-0.7-3.2s-0.2-2.7,0.6-3c0.8-0.6,1.3-1.5,1.2-2.5c-0.2-0.3,3.4,0.3,4.8-0.7s0.3,2.4-0.6,3.9c-0.5,0.7-0.3,1.7,0.4,2.2
	c0.3,0.2,0.6,0.3,1,0.3c0.7,0,1.3,0.4,1.5,1.1c0.1,0.3,1.5-0.5,2.4,0s1.5-1.2,1.5-2s-2.2-2.3-2.5-3.3c-0.3-2.5-0.5-4.9-0.5-7.4
	c0-1-1.5-2.8-1.9-2.5s-1.4-2.8-2.2-3.5c-0.6-0.8-0.9-1.7-0.9-2.7c0-0.5-2.5-3.2-3.2-4.4s-1.5-1-1.6-0.5s-1.8,0.7-2.6,0.6
	s-1.4-3-1.4-4s-3.3-1.2-3.9-2.2s-2.7-0.5-3.1-1c-0.7-0.6-1.6-1-2.6-0.9c-0.3,0.2-0.2,8.1-0.6,10.1s-2.2,4-2.8,3.9s-0.2,1.5,0.1,1.4
	s-1.2,2.3-1.5,3.9s-1.8,0-2-1.5s-1.8-3.4-2.2-3s-1.4-0.6-1.8-0.2s-3.4-1.7-4.7-2.4s-1.8-4.3-2.6-4.7s-0.1-0.8-0.1-1.4
	s2.4-2.7,3.1-3.5c1.3-1.7,2.8-3.4,4.3-5c1-0.8,1.8-2.6,1.6-3s4.4-1.8,5.7-2.2s2.3-3.9,2.5-4.9c0-1.2-0.5-2.3-1.4-3.1
	c-0.6-0.2,1.7-0.3,2.5,0.1s3.1-0.7,4.1-0.2l4.2,2.5l-0.2,2.5l-0.6,4.3c-3.6,1.5-4.7,4.1-3.4,4s7,2.5,8.6,3.6s2.2-1.7,2.6-2.6
	c0.4-1.4,0.4-2.8,0-4.2c-0.5-0.6,1.8-0.3,2.5,0.2s1.4-0.6,1.8-0.9s0.7-2.6,1-3.1s-1-0.9-1.1-1.6s-2.6-1.7-3.4-2.2
	c-0.8-0.6-1-1.6-0.6-2.5c0.3-0.3-0.2-2.6-0.7-3.3s-3.1-1.4-4-1.4s-1.8-2-2.4-2.4c-1.6-0.4-3.3-0.6-4.9-0.5c-0.8,0.2-2.4-2.5-3.9-1.6
	s-3-0.9-3.6-1.4s-4.1,3.3-4,5.8s1.2,5,1.8,5.1s-0.1,2.4-0.7,3.1s-2-0.7-1.5-1.2s-1.5-3.3-2.2-4.3s-2.3-1.5-3.4-1.9l-2,2.3
	c0.3,1,0.4,2.1,0.2,3.1c-0.5,1.6-1.8,1.8-1.8,1.1c-0.4-0.4-0.9-0.6-1.5-0.6c-19.7,23.5-32,52.2-35.6,82.6c0.8,0.7,1.4,1.6,1.8,2.6
	c0.5,1.4,2.8,2.3,3.3,2.6s0.6-2.6,0.2-3.4s0.6-1.1,0.6-0.7s2.3,3.1,3,4.1s1.5,6.9,2.3,8.2s7.6,4,9.9,4.4c2.1,0.7,4,1.9,5.5,3.6
	c0.5,0.7,3.4,1,4,1.4c1,0.8,1.9,1.7,2.7,2.7c0.5,0.5,0.9,1.2,1.1,1.9c0,0.3,3.9,1.8,4.9,2.8c0.8,0.7,1.9,0.8,2.8,0.3
	c0.2-0.5,1,2,1.5,3s0.5,3,0.1,3.3s-0.8,4.2-1.5,5s-2,6.5-1.7,7.6c0.6,1.5,1.7,2.8,3,3.7c0.4,0.2,0.6,0.8,0.3,1.2c0,0,0,0.1,0,0.1
	l-0.4,0.3c-0.6,0-0.3,5.6,1.1,6.4S-54.5,440.8-54.8,441.2z"/>
<path class="st2" d="M-36.2,345"/>
<path class="st1" d="M-47,278.3c1.8-0.3,5-0.9,5.2-1.4c0.1-0.7,0.1-1.5-0.1-2.2h0.9c0.7,0,1.9-3.9,2.6-4.8s5-2.3,6-2.8
	s3.3-2.7,4.1-3.1s2.2-2.3,1.9-2.6s3-2.3,4.1-2.7s1.8-1.8,1.4-1.9s-6.8,3.4-12.8,6.8c-6.9,4.7-13.4,9.9-19.5,15.6L-47,278.3z"/>
<path class="st1" d="M67.4,475c1.9-1.1,5.5-6.2,6.6-7.3s1.9-4.9,2.2-5.7c0.6-1,1.5-1.8,2.5-2.4c0.6-0.2,2.6-8.6,4.4-10.6
	s3.9-10.8,3.6-14.1s1.1-9.3,1.6-10.8c0.8-1.7,1.9-3.3,3.3-4.7c2.3-2.9,4.4-6,6.4-9.2c1.4-2.3,2.7-7.3,2.4-8.5s-3.3-2-3.9-1.4
	s-3.4,1-4.3,1s-3-4.9-4.2-5.8s-2.4-6.6-3.2-7.6c-1.1-1.5-2.2-2.9-3.4-4.3c-0.7-0.6-0.8-3.5-0.9-4.3s1.2,0.5,1.5,1.7s3.5,5.9,4.5,7.5
	s3.7,6.7,4.4,8.3s6.7,0.8,8.7-0.1s4.4-2.5,4.5-3.1s3.2-1.9,4.1-2.6s1.6-4.3,2.2-4.9s-0.5-4.1-1.1-5.1s-3.7-1.8-4.4-1.5
	s-1.9-2.3-2.5-3.3s-2.8-2.3-3.1-3c0-0.8,0.4-1.5,1-2c0.3-0.2,4.8,2.8,6,4.4c1.2,1.5,2.2,3.2,3,4.9c0.2,0.6,3.7,0.7,4.5,0.1
	c0.5-0.5,1.2-0.5,1.7,0c0,0,0.1,0.1,0.1,0.1l0.2,0.2h1l3.9-0.6c1.2,1.1,2,2.5,2.3,4.1c0.3,0.9,1,1.7,1.8,2.2
	c0.7,0.1,1.2,2.6,1.5,3.3c1,1.9,2,3.9,2.8,5.9c0.7,1.9,1.6,3.8,2.7,5.5c0.5,1.2,0.7,2.6,0.8,3.9c0.3,1,1.2,1.7,2.3,1.8
	c0.8-0.1,2.6-5.6,3.1-7.6s1.8-3.7,2.2-3.7s0.7-1.1,0.7-1.6s2.2-0.3,2.4-0.9s0.8-4.2,1.6-4.8c1.4-1,2.9-1.9,4.5-2.7
	c0.9-0.3,3.5,1.8,4.1,2.8c0.6,1.2,0.9,2.6,0.8,4c-0.2,0.3,1.2,2.6,2.6,2.6s1.7,1.7,1.8,2.3s1.8,2.4,2.2,3.2c0.3,1.2,0.3,2.3,0,3.5
	c-0.1,1.4-0.1,2.8,0.1,4.2c0.2,0.8,4.3,5,5.9,6.2s2.3-2.6,1.5-3.7s-3.5-4-4.1-4.8s-0.7-4.2-0.5-5.1s2.4,0.5,3.2,1.1
	c0.9,0.7,1.6,1.6,2,2.6c0,0.5,5.6-2.6,5.8-5.9s2-7.2,2.2-8.1c0.1-0.9-0.3-1.7-1-2.2c-0.5-0.1,0.8-2.5,2.4-2.5s5.2-4.1,6.1-5.8
	c0.8-1.2,1.7-2.3,2.8-3.2c0.8-1.8,1.3-3.7,1.6-5.7c0.2-1.6-0.9-4.1-1-5c-0.4-1.2-1-2.3-1.8-3.3c-0.4-1-0.6-2.2-0.5-3.3
	c0.1-0.3,1.6-0.8,1.7-1.2s1.7-2,1.6-2.8s0.9,1,1.7,1.6s1.5,4.7,2.4,5s4.5-4.2,4.1-7.3s1-6.9,1.9-7.3s2.4-2.7,3.5-4.4
	c-8.1-23.2-21.4-44.2-39-61.3h-0.6l-1.4-0.2c-2.3-0.5-3.5-2.8-3.2-3.4c0.1-0.3,0.1-0.7,0-1c-1.2-1.1-2.5-2.3-3.9-3.3h-2.8
	c-1.7-0.2-3.3-0.7-4.8-1.5c-0.5-0.5-2.3,0.5-2.4,1.5s-3.2,1.4-3.4,2.2c-0.5,0.7-1.4,0.9-2.2,0.5c-0.2-0.5-3.2,1-4.5,1.1
	c-1.6,0.3-3.2,0.9-4.7,1.6c-1,0.6-1.8,1.4-2.4,2.4c-0.7,0.8-1.6,1.4-2.6,1.8c-0.6,0.2-0.5,2.8,0.2,3.3s-1.4-0.3-2.4-0.8
	s-1.9,1.1-2.3,1.7s-1.1-0.3-1.1-1.1s-2.4-1.4-2.6-0.8s-1.9-0.2-2.6-0.6s-3.6,2.7-4.8,3.9s-6.4,1.9-7.3,1.6s-1.9,2.3-1.1,2.5h-3.2
	c-2.6,0.6-5.1,1.5-7.5,2.8c-0.5,0.4-1.3,0.4-1.7-0.1c-0.2-0.2-0.3-0.4-0.3-0.7c0-0.7-1.8-1.2-2.3-1.4s-1.6,3.5-2.5,4.2
	s-2-2.8-4.3-3.5s-5.7-2.7-6.7-3s-3-2.3-3.5-3s-3.4-1-4.3-1s-3.9,1.7-4.7,2.3s-1.9,0.5-2.4,0.8l-5,4.4c-1.2,1-3.5,5.3-4.2,6.5
	c-0.5,0.7-1.3,1.2-2.2,1.2c-0.5,0.4-0.8,1-0.8,1.6c0,0.5-3.7,2.4-4.2,4.1s0.5,5.7,0.5,7s1.4,4.2,2.4,4.2s0.6,2.4,0.2,3.1
	s0.7,1.4,0.6,1.9s-2.6,1.4-3.4,1.6c-1.1,0.7-1.9,1.6-2.3,2.8c-0.1,0.6-2.6,1-3.5,1.8c0.2-0.6,0.4-1.2,0.7-1.8c0.3-1,0-2-0.6-2.8
	c-0.3-0.3-0.6-4.9-1.2-5.9c-0.8-1.1-1.7-2.1-2.6-3c-0.3-0.3,0.2-1.5,0.6-2s-2.2-0.8-2.7-0.5s-1,4.9-1.2,6.1c0,1.3,0.6,2.5,1.6,3.2
	c0.5,0.1,0.2,2.3-0.6,2.4s-1.6,3.3-1.1,4.1s-0.6,2.2-1,2.5s3.2,0.1,4.9,0.1c1-0.1,2,0.2,2.8,0.8c-0.1,0.1-3.2,0.6-3.7,1.2
	s-2.6,2-3,2.6s0.7,1.7,1.5,1.7s1.8,3,2.5,3.5c0.5,0.8,0.6,1.8,0.1,2.6c-0.2,0.5-4.4-0.2-5.9,0.1s-3.5,3.6-3.6,4.9
	c0,1.9,0.2,3.9,0.5,5.8c0.1,1,3.4,1.6,4.1,2s3.7,0,4.4,0.3s2.7-3.2,3.2-4.8s3.7-4.5,4.4-5.7s4.2-0.9,5.1-1.5s0.5,2.7,0.8,4.5
	s3.9,1.6,3.3-0.1s0.3-2.4,0.5-1.8s3.4,1.9,4.1,2.8s0.5,3-0.2,3s-0.8,2.2,0,2.5s1.8-2.5,2.6-3s1.5-2.2,1.1-2.3s0.7-1.7,1.1-1.1
	c-0.8-1.7-1.9-3.4-3.2-4.8c-1.5-1.5-0.3-0.8,2.2,1.4l1.8,2.5c0.3,0.5,0.8,1.8,1.1,2.3l0.5,0.7c0.4,1.3,0.6,2.6,0.7,4
	c0.3,1,1.2,1.7,2.3,1.8c0.5-0.1,1.1,0.1,1.4,0.5c-0.1,0.1,0.6,1.7,1.4,1.7s1.2-2.2,0.3-2.2s-0.7-3.2-0.8-4.7s0.6-2.5,0.9-2.5
	s0,2.8,0,3.5c0.1,1,0.4,1.9,0.8,2.8l0.9,0.7l1.9,1.5c2.8-0.8,6.7-0.1,6.5,0.5s2,0.7,2.2-0.2s0.2,0.1,0.2,0.7s-1.8,3.2-2.2,4.3
	s-6.9,0.3-9.8,0.1s-7,0.7-7.3,1.6s-4.7-1.9-6.7-2.7s-3.6-3.9-4-4.3s0.3-1.4,0.1-2s-4.8-0.7-6.1-0.2s-8.3,1.2-9.9,1.9s-4.1,0-4.9-0.1
	s-2.6,2.2-3.5,2.5s-2,3.6-2.6,7.2l-1.2,2.4l-0.8,1.6c-2.3,1.7-4.8,7.5-5.6,8.7S13,392,13,394.9s2.4,8.7,3.2,10.5s4.9,5.2,6.4,6.1
	s6,1,7.5,1c1.8-0.2,3.2-1.5,3.7-3.2l2.2,0.2h1c0,1.2,3.3,2.2,4.1,2.6c1.2,0.3,2.4,0.3,3.5-0.1c0.6-0.1,1.4,5.6,0.9,7.3
	s1.1,7.5,1.6,9.3s2.5,6.6,2.6,8.3s-1.1,7.5-1.4,9.5s2.5,7.6,3.2,9.5c0.6,2.3,1,4.6,1.2,7c0,0.9,3,6.8,3.6,9.2S65.3,476.2,67.4,475z"
	/>
<path class="st1" d="M197.5,403.2c0.1,0.5,2-1,3.2-1.2s1.8-3.2,0.9-3.4s-1.9-2.6-2.6-2.8s-1.8,1-1.8,1.9s-2,1.2-2.5,2
	s-0.3,1.2,0,1.2C195.8,401.5,196.7,402.3,197.5,403.2z"/>
<path class="st1" d="M195.3,419.9c0.6-0.2,0-3.2-1.2-3.4s-4.4,4-3.9,6.4s1.2,2.3,1.6,1.7s2.3,0.3,2.8,0.5s0.6-0.3,0-1.2
	S194.7,420.2,195.3,419.9z"/>
<path class="st1" d="M188.8,417c0.1-1,0.3-4.4,0.5-5.1s-1.8-2.6-2.8-3s-4.1,6.5-6.4,7.7s-3.1,5.5-2.5,6.4s5.3,1.5,6.1,2.2
	s1.7-0.1,2.3-0.2s0.3-0.5,0.1-0.6s1.6-2,1.9-3.3C188.4,419.7,188.6,418.4,188.8,417z"/>
<path class="st1" d="M175.8,428.5c-1.7-0.7-3.9,0.3-4,1s6.8,1.8,9.2,2.4s3.7,0.8,3.3,0.5L175.8,428.5z"/>
<path class="st1" d="M190.3,382.5c0.6-0.8-0.8-4.4-1.5-3.6s-0.1,3,0,3.7S189.7,383.3,190.3,382.5z"/>
<path class="st1" d="M194.4,390.4c0.5-0.9-0.5-1.9-2-2.3s-1.2,4.2-0.6,4.8S194,391.3,194.4,390.4z"/>
<path class="st1" d="M202.4,418.8c1.8,1.2,5.9,0.7,6-1.7C206.6,415.9,202.3,416.1,202.4,418.8z"/>
<path class="st1" d="M201.4,362.5c-0.7,0.6-1,1.5-0.9,2.4h-0.3c-0.6,0-0.7,2.4,0,2.8s2.2-1.8,3-2.4c0.8-0.5,1.7-0.8,2.6-0.7
	c1.1-0.1,2.1-0.4,3.1-0.9c0.4-0.3,0.7-0.6,0.9-1c-0.3-1.7-0.8-3.4-1.1-5.2l-2,1.5L201.4,362.5z"/>
<path class="st2" d="M159.6,411.1"/>
<path class="st1" d="M171,421.7c-1.3-2.1-2.9-4-4.8-5.6l-0.7-1.2l-0.8-1.4c-0.7-1.5-3-2.6-3.2-3.1s-0.9,1.2-1.7,0.8l2.4,1.7
	c2,1.5,6.1,11.8,7.2,12.5S171.6,423.1,171,421.7z"/>
<path class="st1" d="M138.4,405c-0.6,1.1,3,3.6,3.3,3.1c0-1.4-0.3-2.8-1-4C139.9,403.4,139,403.8,138.4,405z"/>
<path class="st1" d="M90.6,459.9c0.1,1.2,2.6,2.2,3.3,1.9s2.7-3.9,3-4.9c0.3-1.3,0.5-2.6,0.6-3.9c0.1-0.7,0.3-1.3,0.6-1.9
	c0.5-0.8,0.8-1.7,1-2.7c0.2-1.4-1.5-7.8-1.5-9s-1.2,0.6-1.6,1.7s-3.5,3.5-4.3,4.4s-1.5,4.2-1.1,4.8c0.1,1.2-0.1,2.3-0.6,3.4
	C89.5,454.5,90.4,458.8,90.6,459.9z"/>
<path class="st1" d="M-25.8,504.9h2.2C-23.4,502.5-25.9,502.9-25.8,504.9z"/>
<path class="st1" d="M32.1,260.2c-1.2,0-2.5-0.2-3.6-0.8c-1.6-0.6-3.3-0.7-4.9-0.3c-1,0.5-0.3-2.5,1-2.7s0.2-2.3-1.2-2.3
	s-5.2-0.6-6-0.3c-1.1-0.1-2.2-0.3-3.2-0.7c-0.6-0.1-5.1,1.4-7.2,1.2c-2.8-0.1-5.6,0.1-8.4,0.5c-1.1,0.2-1.9,2.5-1.7,3.3
	s-5,0.8-6.6,0.8s-10.3,1.8-12.6,3.1s-4,4.4-3.3,4.4s-1.2,1.8-2.5,2.3s-4.1,0.6-4.8,1.2s0.7,1.1,0.9,1.6s1-0.3,1.8,0.1s3.3,0.6,4,0.9
	s-2.2,0.8-3.4,0.9s-1,2.6,0,3.1s3.9,0.7,4.1,0.2s3.3,0.5,4.7,0.7s2.4,3.5,2.8,4.3s0.5,3.3,0.5,4.1s2.4,2,2.8,1.6s0.3,1.1-0.7,1
	s-0.3,2.7,0.9,3.2s0.3,2.2-0.3,2.7s-0.3,2.2-1,2.8s2.6,6.4,2.5,9.3s1.8,5.3,2.5,5.3s3.1,0.6,3.4,1.2s1.5-0.5,1.9-0.9
	c0.8-1,1.5-2.1,2.2-3.2c0.8-1.2,2.4-7.2,2.6-7.8s3-0.2,3.6-0.6l3-2.2c0.5-0.5,4.4-2,5.6-2.8s2.8-4.1,3.7-4.9s-0.5-0.5-1.5-1.1
	c-0.5-0.3-0.7-1-0.4-1.5l0.2-0.3c0.2-0.3,3.5,0.5,4.5,0.9s3.2-1,2.4-1.6s-0.3-0.6,0-0.3s0.8-1.9,0.5-2.4s3.2-3.1,2.6-5.6
	s0.9-5.1,1.9-5.1s0.7-2.8-0.6-3.1s0-0.5,0.5-0.9c0.5-1.1,0.7-2.2,0.7-3.4c-0.2-0.5,1.8-1,2.2-1.6c1-0.8,2.2-1.4,3.5-1.8
	C32.4,262.5,32.9,260.2,32.1,260.2z"/>
<path class="st1" d="M52.6,262.5c-1.1-0.3-3.4,0.9-3.1,1.6s-1.8-0.9-3.3-0.1s-1.9,3.4-1.2,3.7s1.1,2.4,1.1,2.8s2.8,0.1,3.6-0.5
	s0.6,2-0.1,2.8s0.2,2.2,1,2.3s1.8,1.9,2.7,1.9s2.3-3.2,2.5-4.3s3.1-0.2,4.3,0.1s1.7-4.3,0.3-5.1s-3.1-0.3-3.6-0.9
	c-0.6-0.6-1.4-1-2.2-1.1C54.3,265.7,53.7,262.8,52.6,262.5z"/>
<path class="st1" d="M63.6,264.8c1.9,0,3.8-0.7,5.2-2c0.6-0.5-6.1-1.8-8.7-1.9s-4.5,0.2-4.5,0.8S61.5,264.4,63.6,264.8z"/>
<path class="st1" d="M22.9,325.1c-0.6-0.2-0.9,1.9-0.8,2.7s2.2,0.8,3.1,0.6c0.8-0.1,1.4-0.8,1.5-1.6c0-0.7-1.2-4-1.7-4
	S23.5,325.3,22.9,325.1z"/>
<path class="st1" d="M29.5,299.3c-0.5-0.8-3.9-0.7-4.8-0.7c-1.4-0.3-2.8-0.8-4-1.5c-0.6-0.6-0.8,2.2-1.6,2.5s0.5,0.8,0.7,0.6
	s0,1.4-0.5,1.9s2.3,0.9,2.6,1.8c0.5,0.9,1.4,1.4,2.4,1.2c1-0.1,3.1-1.2,3.9-1.4S30,300.2,29.5,299.3z"/>
<path class="st1" d="M103,279.3c1.1-1.1,6.1-2.8,6.7-4.1c0.4-0.8,0.2-1.7-0.6-2.2c0,0,0,0,0,0h-0.2c-0.5,0.1-0.9,0.4-1.2,0.8
	c-0.1,0.2-5.8,1.5-7.5,2.4c-1.6,0.7-3.1,1.7-4.4,2.8c-0.7,0.7-1.9,6.4-2.3,6.9s1.8,2.8,2.8,3.5c0.9,0.3,1.9,0.4,2.8,0.2
	c0.5-0.1-0.5-4-1-5.3S101.9,280.6,103,279.3z"/>
<path class="st1" d="M97,264.7c1.8,1.8,2.8-0.8,4.9-0.6C101.9,260.2,96.8,261.7,97,264.7z"/>
<path class="st1" d="M133.2,265.5c0,0.7,5.1,1.2,6.7,0.9s-0.3-2.6-2.5-2.5S133.2,264.8,133.2,265.5z"/>
<path class="st1" d="M-55.8,304.1c-0.6,0.5,0,3.1,0.9,3.1s2.7-3.9,4-3.1s2.2,1,1.9,0.7s-3.9-1.9-4.3-2.3S-55.2,303.6-55.8,304.1z"/>
<path class="st1" d="M-42.5,390.9c0,0.5,2.3,0.3,2.6-0.3s0.1-1.2-0.5-1.2C-41.3,389.6-42,390.1-42.5,390.9z"/>
<path class="st1" d="M-52.6,387.1c1-0.2,0.6,1.5,0.8,2.2s2.8,1.1,3.4,1.6s1.8-0.8,2.8-0.7s-0.3-3.6-2-3.5s-3.1-1.6-3.5-1.8
	c-1.1-0.5-2.1-1.1-3-1.8c-0.6-0.5-5-0.8-6.5-0.8c-1.4,0.1-2.6,0.9-3.4,2c-0.2,0.5,2.4,0.9,3.1,0.5s4.2,0.5,5,1.2
	C-55,386.8-53.8,387.2-52.6,387.1z"/>
<path class="st1" d="M-57.4,390.9c0,0.5,2.3,0.1,2.8,0.1s0.6-0.5,0-0.8S-57.4,390.4-57.4,390.9z"/>
<path class="st1" d="M-55.8,379.1c-0.6-0.2-1,0.7-1,1.1c0,0.4,0.3,0.7,0.7,0.8C-55.7,381-55.1,379.3-55.8,379.1z"/>
<path class="st1" d="M-50.9,379.4c-0.3-0.5-0.9-0.8-1.5-0.8c-0.3,0-0.5,0.7-0.5,1.7S-50.8,379.8-50.9,379.4z"/>
<path class="st1" d="M-47.5,384.7c0.9-0.5,1-1.5,0.5-1.5s-1.6-1.6-2.2-1.8s-1,1-1,1.5c-0.1,0.4,0.2,0.7,0.6,0.8c0,0,0,0,0,0h0.1
	C-49.1,383.6-48.4,385.2-47.5,384.7z"/>
<path class="st1" d="M209.4,420.9c-0.5,0.2-2.7,0.5-3.1,0.1s-0.7,0.9-1.2,1.1c-0.2,0.2-0.2,0.6,0,0.8c0.2,0.2,0.4,0.2,0.6,0.2
	c0.8-0.3,2.7,0.9,4.4,2c0.3-1.7,0.7-3.5,0.9-5.3L209.4,420.9z"/>
<path class="st1" d="M-54.8,441.2c-0.2,0.5,2.6,3.3,3.6,4.3c1.6,2.2,2.9,4.7,3.9,7.3c0.3,1.6,0.3,3.1,0,4.7c0.1,0.8,0.3,1.6,0.6,2.4
	c0.1,0.6-0.9,5.1-0.6,7s-2.2,7.6-2,10.6s1.4,6.6,1.8,6.4s0.7,2.6-0.1,3s-1.9,2.6-1.4,2.7s0,2.4,0.1,3.3s0.9,6.9,1,8.4
	s2.3,5.1,2.7,6.4s0.9,3.5,1,3.9l0.3,0.8c0.8,0.2,1.6,0.6,2.3,1c0.5,0.3,3.9,0.1,5-0.1s0.1-1.2-0.3-1.7s-0.9-3.2-1.5-3.4
	s-0.8-3.6-0.3-4.4s2.5-1.9,2.7-2.6s0.2-3.5-0.2-4s0.1-4-0.2-5.8s3.1-3.4,3.3-4.8s4-3,4.8-3.6s1.6-4.8,1.1-5.6s1.4-1.6,2.2-1.6l2-0.6
	c0.2,0,1.2-1.8,1.7-2.2s1.6-4.7,2.5-5.3c0.9-1.1,1.5-2.5,1.7-4c0.4-1.3,1-2.5,1.9-3.6c0.5-0.7,4-2.3,4.7-2.5s1.6-5.9,1.8-8
	c0.4-1.9,0.8-3.7,1.4-5.5c0-0.7,1.1-1.2,1.4-1.5s1-2.8,1.6-3.4s2.5-3.1,2.5-3.6c0.1-1.1,0.4-2.2,0.7-3.2v-3.5
	c-0.6-1.7-2.5-3.9-3-3.3s-2.6-1.5-3.7-1.9c-1.5-0.4-3-0.7-4.5-0.7c-0.7,0-3.1-1.9-4.2-2.3c-1.5-0.3-2.9-0.6-4.3-1.1
	c-0.5-0.3-1.1-4.4-3.4-5.8s-6.1-4.5-6.6-5.7s-4.7-3.5-6-4.3s-3.3-0.9-3.5-0.6s-1.9-2.3-2.7-3s-3.4-1.2-3.5-0.7s-1.8,0.2-2.2-0.2
	s-1.7,0.2-2.4,0.5s-2.7,3.4-3.7,4.2s-2.2-0.7-2.8-1c-1.3,0-2.6,0.3-3.7,1c-0.7,0.5-2.2-3.4-1.8-5.2s-1.6-5.3-3.2-5.5
	s-1.9-3.9-1.7-5.2s-2.7-2.3-3.5-2.4s-2.6,1.8-3,2.8s-7.3-1.2-6.5-5.5s4.1-8.5,4.9-9s5.2-0.7,6.2-0.1c0.6,0.3,1.4,0.3,2-0.2
	c1.7-0.1,3.3,0,4.9,0.5c1,0.5,2.6,4.7,3.7,5.1s1.5-2.7,1.7-3.5c-0.1-1.1-0.4-2.3-0.8-3.3c-0.2-0.6,1.8-5.7,3.5-6.5s3.5-3.7,3.3-4.2
	s1.4-0.9,1.7-1.1s0-4.3,0.6-5.2c1.5-1.3,3.1-2.4,4.9-3.2c1-0.5,1.7-3,1.4-3.5s2.6-3,4.2-3.5s2.8,0.9,2.5,1l3.3-1.8
	c0.9-0.6,0-2.6-0.7-3.2s-0.2-2.7,0.6-3c0.8-0.6,1.3-1.5,1.2-2.5c-0.2-0.3,3.4,0.3,4.8-0.7s0.3,2.4-0.6,3.9c-0.5,0.7-0.3,1.7,0.4,2.2
	c0.3,0.2,0.6,0.3,1,0.3c0.7,0,1.3,0.4,1.5,1.1c0.1,0.3,1.5-0.5,2.4,0s1.5-1.2,1.5-2s-2.2-2.3-2.5-3.3c-0.3-2.5-0.5-4.9-0.5-7.4
	c0-1-1.5-2.8-1.9-2.5s-1.4-2.8-2.2-3.5c-0.6-0.8-0.9-1.7-0.9-2.7c0-0.5-2.5-3.2-3.2-4.4s-1.5-1-1.6-0.5s-1.8,0.7-2.6,0.6
	s-1.4-3-1.4-4s-3.3-1.2-3.9-2.2s-2.7-0.5-3.1-1c-0.7-0.6-1.6-1-2.6-0.9c-0.3,0.2-0.2,8.1-0.6,10.1s-2.2,4-2.8,3.9s-0.2,1.5,0.1,1.4
	s-1.2,2.3-1.5,3.9s-1.8,0-2-1.5s-1.8-3.4-2.2-3s-1.4-0.6-1.8-0.2s-3.4-1.7-4.7-2.4s-1.8-4.3-2.6-4.7s-0.1-0.8-0.1-1.4
	s2.4-2.7,3.1-3.5c1.3-1.7,2.8-3.4,4.3-5c1-0.8,1.8-2.6,1.6-3s4.4-1.8,5.7-2.2s2.3-3.9,2.5-4.9c0-1.2-0.5-2.3-1.4-3.1
	c-0.6-0.2,1.7-0.3,2.5,0.1s3.1-0.7,4.1-0.2l4.2,2.5l-0.2,2.5l-0.6,4.3c-3.6,1.5-4.7,4.1-3.4,4s7,2.5,8.6,3.6s2.2-1.7,2.6-2.6
	c0.4-1.4,0.4-2.8,0-4.2c-0.5-0.6,1.8-0.3,2.5,0.2s1.4-0.6,1.8-0.9s0.7-2.6,1-3.1s-1-0.9-1.1-1.6s-2.6-1.7-3.4-2.2
	c-0.8-0.6-1-1.6-0.6-2.5c0.3-0.3-0.2-2.6-0.7-3.3s-3.1-1.4-4-1.4s-1.8-2-2.4-2.4c-1.6-0.4-3.3-0.6-4.9-0.5c-0.8,0.2-2.4-2.5-3.9-1.6
	s-3-0.9-3.6-1.4s-4.1,3.3-4,5.8s1.2,5,1.8,5.1s-0.1,2.4-0.7,3.1s-2-0.7-1.5-1.2s-1.5-3.3-2.2-4.3s-2.3-1.5-3.4-1.9l-2,2.3
	c0.3,1,0.4,2.1,0.2,3.1c-0.5,1.6-1.8,1.8-1.8,1.1c-0.4-0.4-0.9-0.6-1.5-0.6l-2,2.6l-2,2.6l-2,2.8l-1.8,2.5l-2.6,3.9l-2.4,3.7
	c-0.7,1-1.2,2.2-1.9,3.3c-0.5,0.7-0.9,1.5-1.2,2.3l-1.9,3.5l-1,2c-1.4,2.7-2.7,5.6-4,8.5v0.2l-1.7,4.3l-0.7,1.6l-1.6,4.4l-0.2,0.7
	c-1.7,5-3.2,10.1-4.4,15.3c-0.1,0.3-0.1,0.7-0.2,1c-1.2,5.5-2.2,11.1-2.8,16.7l0,0c0.8,0.7,1.4,1.6,1.8,2.6c0.5,1.4,2.8,2.3,3.3,2.6
	s0.6-2.6,0.2-3.4s0.6-1.1,0.6-0.7s2.3,3.1,3,4.1s1.5,6.9,2.3,8.2s7.6,4,9.9,4.4c2.1,0.7,4,1.9,5.5,3.6c0.5,0.7,3.4,1,4,1.4
	c1,0.8,1.9,1.7,2.7,2.7c0.5,0.5,0.9,1.2,1.1,1.9c0,0.3,3.9,1.8,4.9,2.8c0.8,0.7,1.9,0.8,2.8,0.3c0.2-0.5,1,2,1.5,3s0.5,3,0.1,3.3
	s-0.8,4.2-1.5,5s-2,6.5-1.7,7.6c0.6,1.5,1.7,2.8,3,3.7c0.4,0.2,0.6,0.8,0.3,1.2c0,0,0,0.1,0,0.1l-0.4,0.3c-0.6,0-0.3,5.6,1.1,6.4
	S-54.5,440.8-54.8,441.2z"/>
<line class="st3" x1="-36.2" y1="344.9" x2="-36.2" y2="344.9"/>
<path class="st1" d="M-47,278.3c1.8-0.3,5-0.9,5.2-1.4c0.1-0.7,0.1-1.5-0.1-2.2h0.9c0.7,0,1.9-3.9,2.6-4.8s5-2.3,6-2.8
	s3.3-2.7,4.1-3.1s2.2-2.3,1.9-2.6s3-2.3,4.1-2.7s1.8-1.8,1.4-1.9s-6.8,3.4-12.8,6.8h-0.1l-5.1,3.6l-3.3,2.6l-1.7,1.4l-3.9,3.3
	l-0.8,0.7l-4.2,3.7L-47,278.3z"/>
<path class="st1" d="M53,355.4c-0.7,0-0.8,2.2,0,2.5s1.2-1.2,1.9-2.2V347h-0.1c-0.9-0.9-0.8-0.9,0.1-0.2v-54.2l-2,1.8
	c-1.2,1-3.5,5.3-4.2,6.5c-0.5,0.7-1.3,1.2-2.2,1.2c-0.5,0.4-0.8,1-0.8,1.6c0,0.5-3.7,2.4-4.2,4.1s0.5,5.7,0.5,7s1.4,4.2,2.4,4.2
	s0.6,2.4,0.2,3.1s0.7,1.4,0.6,1.9s-2.6,1.4-3.4,1.6c-1.1,0.7-1.9,1.6-2.3,2.8c-0.1,0.6-2.6,1-3.5,1.8s0.6-1.4,0.7-1.8
	c0.3-1,0-2-0.6-2.8c-0.3-0.3-0.6-4.9-1.2-5.9c-0.8-1.1-1.7-2.1-2.6-3c-0.5-0.3,0.2-1.5,0.6-2s-2.2-0.8-2.7-0.5s-1,4.9-1.2,6.1
	c0,1.3,0.6,2.5,1.6,3.2c0.5,0.1,0.2,2.3-0.6,2.4s-1.6,3.3-1.1,4.1s-0.6,2.2-1,2.5s3.2,0.1,4.9,0.1c1-0.1,2,0.2,2.8,0.8
	c-0.1,0.1-3.2,0.6-3.7,1.2s-2.6,2-3,2.6s0.7,1.7,1.5,1.7s1.8,3,2.5,3.5c0.5,0.8,0.6,1.8,0.1,2.6c-0.2,0.5-4.4-0.2-5.9,0.1
	s-3.5,3.6-3.6,4.9c0,1.9,0.2,3.9,0.5,5.8c0.1,0.9,3.4,1.6,4.1,2s3.7,0,4.4,0.3s2.7-3.2,3.2-4.8s3.7-4.5,4.4-5.7s4.2-0.9,5.1-1.5
	s0.5,2.7,0.8,4.5s3.9,1.6,3.3-0.1s0.3-2.4,0.5-1.8s3.4,1.9,4.1,2.8S53.7,355.4,53,355.4z"/>
<path class="st1" d="M55,366.2l-1.7-0.8c-2-0.8-3.6-3.9-4-4.3s0.3-1.4,0.1-2s-4.8-0.7-6.1-0.2s-8.3,1.2-9.9,1.9s-4.1,0-4.9-0.1
	s-2.6,2.2-3.5,2.5s-2,3.6-2.6,7.2l-1.2,2.4l-0.8,1.6c-2.3,1.7-4.8,7.5-5.6,8.7s-1.4,9.5-1.4,12.4s2.4,8.7,3.2,10.5s4.9,5.2,6.4,6.1
	s6,1,7.5,1c1.8-0.2,3.2-1.5,3.7-3.2l2.2,0.2h1c0,1.2,3.3,2.2,4.1,2.6c1.2,0.3,2.4,0.3,3.5-0.1c0.6-0.1,1.4,5.6,0.9,7.3
	s1.1,7.5,1.6,9.3s2.5,6.6,2.6,8.3S49,445,48.7,447s2.5,7.6,3.2,9.5c0.6,2.3,1,4.6,1.2,7c0.4,1.4,0.9,2.8,1.6,4.1V366l0,0L55,366.2z"
	/>
<path class="st1" d="M-25.8,504.9h2.2C-23.4,502.5-25.9,502.9-25.8,504.9z"/>
<path class="st1" d="M17.8,288.7c1.1,0.5,3.2-1,2.4-1.6s-0.3-0.6,0-0.3s0.8-1.9,0.5-2.4s3.2-3.1,2.6-5.6s1-5.1,1.9-5.1
	s0.7-2.8-0.6-3.1s0-0.5,0.5-0.9c0.5-1.1,0.7-2.2,0.7-3.4c-0.2-0.5,1.8-1,2.2-1.6c1-0.9,2.2-1.5,3.5-1.8c0.9-0.1,1.2-2.4,0.5-2.3
	c-1.2,0-2.5-0.2-3.6-0.8c-0.5-0.5-3.9-0.8-4.9-0.5s-0.3-2.5,1-2.7s0.2-2.3-1.2-2.3s-5.2-0.6-6-0.3c-1.1-0.1-2.2-0.3-3.2-0.7
	c-0.6-0.1-5.1,1.4-7.2,1.2c-2.8-0.1-5.6,0.1-8.4,0.5c-1.1,0.2-1.9,2.5-1.7,3.3s-5,0.8-6.6,0.8s-10.3,1.8-12.6,3.1s-4,4.4-3.3,4.4
	s-1.2,1.8-2.5,2.3s-4.1,0.6-4.8,1.2s0.7,1.1,0.9,1.6s1-0.5,1.8,0s3.3,0.6,4,0.9s-2.2,0.8-3.4,0.9s-1,2.6,0,3.1s3.9,0.7,4.1,0.2
	s3.3,0.5,4.7,0.7s2.4,3.5,2.8,4.3s0.5,3.3,0.5,4.1s2.4,2,2.8,1.6s0.3,1.1-0.7,1s-0.3,2.7,0.9,3.2s0.3,2.2-0.3,2.7s-0.3,2.2-1,2.8
	s2.6,6.4,2.5,9.3s1.8,5.3,2.5,5.3s3.1,0.6,3.4,1.2s1.5-0.5,1.9-0.9c0.8-1,1.5-2.1,2.2-3.2c0.8-1.2,2.4-7.2,2.6-7.8s3-0.2,3.6-0.6
	l3-2.2c0.5-0.5,4.4-2,5.6-2.8s2.8-4.1,3.7-4.9s-0.5-0.5-1.5-1.1c-0.5-0.3-0.7-1-0.4-1.5l0.2-0.3C13.5,287.5,16.8,288.3,17.8,288.7z"
	/>
<path class="st1" d="M52.6,262.5c-1.1-0.3-3.4,0.9-3.1,1.6s-1.8-0.9-3.3-0.1s-1.9,3.4-1.2,3.7s1.1,2.4,1.1,2.8s2.8,0.1,3.6-0.5
	s0.6,2-0.1,2.8s0.2,2.2,1,2.3s1.8,1.9,2.7,1.9c0.7-0.3,1.3-0.9,1.5-1.7v-9.8l0,0C54.3,265.7,53.7,262.8,52.6,262.5z"/>
<path class="st1" d="M25.3,328.4c0.8-0.1,1.4-0.8,1.5-1.6c0-0.7-1.2-4-1.7-4s-1.4,2.4-2,2.2s-0.9,1.9-0.8,2.7S24.3,328.6,25.3,328.4
	z"/>
<path class="st1" d="M22.1,304c0.5,0.9,1.4,1.4,2.4,1.2c1-0.1,3.1-1.2,3.9-1.4s1.5-3.7,1-4.5s-3.9-0.7-4.8-0.7
	c-1.4-0.3-2.8-0.8-4-1.5c-0.6-0.6-0.8,2.2-1.6,2.5s0.3,0.8,0.7,0.6s0,1.4-0.5,1.9S21.9,303.3,22.1,304z"/>
<path class="st1" d="M-55.8,304.1c-0.6,0.5,0,3.1,0.9,3.1s2.7-3.9,4-3.1s2.2,1,1.9,0.7s-3.9-1.9-4.3-2.3S-55.2,303.6-55.8,304.1z"/>
<path class="st1" d="M-42.5,390.9c0,0.5,2.3,0.3,2.6-0.3s0.1-1.2-0.5-1.2C-41.3,389.6-42,390.1-42.5,390.9z"/>
<path class="st1" d="M-52.6,387.1c1-0.2,0.6,1.5,0.8,2.2s2.8,1.1,3.4,1.6s1.8-0.8,2.8-0.7s-0.3-3.6-2-3.5s-3.1-1.6-3.5-1.8
	c-1.1-0.5-2.1-1.1-3-1.8c-0.6-0.5-5-0.8-6.5-0.8c-1.4,0.1-2.6,0.9-3.4,2c-0.2,0.5,2.4,0.9,3.1,0.5s4.2,0.5,5,1.2
	C-55,386.8-53.8,387.2-52.6,387.1z"/>
<path class="st1" d="M-57.4,390.9c0,0.5,2.3,0.1,2.8,0.1s0.6-0.5,0-0.8S-57.4,390.4-57.4,390.9z"/>
<path class="st1" d="M-55.8,379.1c-0.6-0.2-1,0.7-1,1.1c0,0.4,0.3,0.7,0.7,0.8C-55.7,381-55.1,379.3-55.8,379.1z"/>
<path class="st1" d="M-50.9,379.4c-0.3-0.5-0.9-0.8-1.5-0.8c-0.3,0-0.5,0.7-0.5,1.7S-50.8,379.8-50.9,379.4z"/>
<path class="st1" d="M-47.5,384.7c0.9-0.5,1-1.5,0.5-1.5s-1.6-1.6-2.2-1.8s-1,1-1,1.5c-0.1,0.4,0.2,0.7,0.6,0.8c0,0,0,0,0,0h0.1
	C-49.1,383.6-48.4,385.2-47.5,384.7z"/>
<path class="st4" d="M-41.8,275.1c-0.1-0.1-0.8,0.3-0.5,0.6c0.2,0.1,0.4,0,0.5-0.2C-41.7,275.4-41.7,275.2-41.8,275.1z"/>
<path class="st4" d="M-24.3,327.3c-0.1-0.1-0.8,0.3-0.6,0.6S-24,327.6-24.3,327.3z"/>
<path class="st5" d="M-25,278.9h-87.8c-10.6,0-19.2,8.7-19.2,19.4v213.1c0,10.7,8.6,19.4,19.2,19.4H-25c10.6,0,19.2-8.7,19.2-19.4
	V298.5c0.1-10.7-8.3-19.4-18.9-19.5c0,0,0,0,0,0H-25V278.9z"/>
<path class="st6" d="M-85.5,297h33.2c0.9,0,1.7,0.8,1.7,1.7c0.1,0.9-0.6,1.6-1.5,1.7c0,0,0,0,0,0h-33.4c-0.9,0-1.7-0.7-1.7-1.7
	C-87.2,297.8-86.5,297-85.5,297C-85.5,297-85.5,297-85.5,297z"/>
<path class="st6" d="M-69,516.8c-6.1,0-11.1-5-11.1-11.1s5-11.1,11.1-11.1c6.1,0,11.1,5,11.1,11.1C-58,511.8-62.9,516.7-69,516.8z"
	/>
<rect x="-123.8" y="319.9" class="st6" width="109.6" height="162.3"/>
<path class="st2" d="M-69,498c-4.2,0.1-7.6,3.5-7.7,7.7c0,4.3,3.4,7.7,7.7,7.7s7.7-3.4,7.7-7.7C-61.3,501.4-64.7,498-69,498L-69,498
	z"/>
<rect x="-90.9" y="336" class="st7" width="70.1" height="6.9"/>
<path class="st7" d="M-99.3,339.5c0,5-4.1,9.1-9.1,9.1c-5,0-9.1-4.1-9.1-9.1c0-5,4.1-9.1,9.1-9.1S-99.3,334.5-99.3,339.5
	C-99.3,339.5-99.3,339.5-99.3,339.5z"/>
<rect x="-117.5" y="439.3" class="st7" width="97" height="2.9"/>
<rect x="-117.5" y="449.2" class="st7" width="97" height="2.9"/>
<rect x="-117.5" y="459" class="st7" width="97" height="2.9"/>
<rect x="-117.5" y="468.7" class="st7" width="70.4" height="2.9"/>
<rect x="-117.5" y="420.4" class="st7" width="64.5" height="6.9"/>
<path class="st6" d="M-90.5,386.5v-12.6h2.3l1.9,5l1.4,3.6l0,0c-0.1-1.4-0.2-3.5-0.2-5.8v-2.8h2.2v12.6h-2.4l-1.9-4.8
	c-0.5-1.2-0.9-2.4-1.2-3.7l0,0c0,1.2,0.1,3.2,0.1,5.8v2.8h-2.2L-90.5,386.5z"/>
<path class="st6" d="M-75.5,381h-2.8v3.4h3.3v2.2h-5.7v-12.7h5.5v2.2h-3.1v3h2.8V381L-75.5,381L-75.5,381z"/>
<path class="st6" d="M-72.1,376.2h-2.3v-2.3h6.9v2.3h-2.3v10.3h-2.5v-10.3h0.1H-72.1z"/>
<path class="st6" d="M-64.4,386.5l-2.2-12.6h2.5l0.6,5c0.1,1.5,0.2,2.8,0.5,4.4l0,0c0.1-1.6,0.5-3,0.7-4.4l0.9-5h1.9l0.8,5
	c0.2,1.5,0.5,2.8,0.6,4.4l0,0l0.5-4.4l0.6-5h2.4l-2.3,12.6h-2.2l-0.8-4.1c-0.2-1.1-0.3-2.6-0.6-4.1l0,0c-0.2,1.5-0.5,3-0.7,4.2
	l-0.8,4.1L-64.4,386.5L-64.4,386.5z"/>
<path class="st6" d="M-45.6,380.1c0,4.8-1.7,6.7-4.1,6.7s-4-3.1-4-6.5s1.4-6.5,4.2-6.5S-45.6,377.1-45.6,380.1z M-51.2,380.3
	c0,2.8,0.6,4.3,1.6,4.3s1.5-1.8,1.5-4.4s-0.3-4.2-1.5-4.2s-1.5,1.6-1.5,4.3L-51.2,380.3z"/>
<path class="st6" d="M-44.1,374.2l2.7-0.2c1.2-0.1,2.4,0.2,3.4,0.9c0.7,0.7,1.1,1.6,1,2.6c0.1,1.3-0.7,2.6-1.9,3.2l0,0
	c0.9,0.3,1.2,1.1,1.6,2.5c0.2,1.2,0.4,2.3,0.8,3.4h-2.6c-0.3-1-0.5-2.1-0.6-3.1c-0.2-1.6-0.6-2-1.5-2h-0.3v5H-44L-44.1,374.2
	L-44.1,374.2L-44.1,374.2z M-41.6,379.7h0.5c0.9,0,1.7-0.8,1.7-1.7v-0.2c0.1-0.9-0.5-1.6-1.3-1.8h-0.8L-41.6,379.7L-41.6,379.7z"/>
<rect x="-119.6" y="347.9" class="st8" width="98.2" height="68.8"/>
<g>
	<path class="st9" d="M-40.2,407.7c2.5-2.3,4.8-4.8,6.6-7.6C-35.9,402.6-38,405.1-40.2,407.7z"/>
	<path class="st10" d="M-38.1,361.2c0,0,0.1,0,0.1-0.1c-6.9-7.1-17.1-11.8-28.7-12.4c-22.6-1-42.2,14.1-43.8,33.8
		c-0.8,9.3,2.6,17.9,8.8,24.5c1.8-1.4,3.7-2.9,5.5-4.3c8.9-6.8,17.9-13.4,27-20c3.2-2.4,6.3-4.9,9.6-7.1c1.1-0.7,2.3-1.5,3.5-2.2
		c0.8-0.8,1.6-1.5,2.5-2.2c1.9-1.5,3.9-2.7,6-3.8c1.1-1.5,2.7-2.7,4.5-3C-42,362.8-40.1,361.5-38.1,361.2z"/>
	<path class="st3" d="M-74.8,384.9c-4.4,3.1-8.8,6.2-13.2,9.3"/>
	<path class="st3" d="M-49,366.6c-2.7,1.9-5.4,3.8-8.1,5.7"/>
	<path class="st3" d="M-41.7,361.5c-0.6,0.4-1.2,0.8-1.8,1.3"/>
	<path class="st11" d="M-102.6,406.3c0,0-0.1,0-0.1,0.1c7,7.1,17.2,11.7,28.8,12.1c22.6,0.8,42.1-14.5,43.5-34.1
		c0.7-9.3-2.8-17.9-9-24.5c-1.8,1.5-3.6,2.9-5.5,4.3c-8.8,6.9-17.8,13.5-26.8,20.2c-3.2,2.4-6.2,4.9-9.6,7.1
		c-1.1,0.8-2.3,1.5-3.5,2.2c-0.8,0.8-1.6,1.5-2.5,2.2c-1.8,1.5-3.9,2.7-6,3.9c-1,1.5-2.7,2.7-4.5,3.1
		C-98.7,404.7-100.6,406-102.6,406.3z"/>
</g>
<text transform="matrix(1.266 0 0 1 -105.4003 397)" class="st12 st13 st14">AS</text>
</svg>
